<svg xmlns="http://www.w3.org/2000/svg" viewBox="0 0 104.27997 73.684671" height="73.685" width="104.28"><defs><clipPath id="a"><path d="M0 218.5h249.5V0H0v218.5z"/></clipPath><clipPath id="b"><path d="M221.353 119.034l-15.186-4.03c-3.412-.904-4.12-4.92-.34-8.583 3.207-3.107 7.582-3.887 9.783-1.086l7.267 11.823c.33.564.25 1.1-.077 1.467-.255.284-.65.45-1.08.45a1.73 1.73 0 0 1-.367-.04"/></clipPath><linearGradient id="c" gradientTransform="matrix(46.32758 -106.86475 -106.86475 -46.32756 178.53 194.188)" gradientUnits="userSpaceOnUse" x2="1"><stop offset="0" stop-color="#ffc63f"/><stop offset=".637" stop-color="#f58400"/><stop offset="1" stop-color="#f58400"/></linearGradient><clipPath id="d"><path d="M214.7 210.126l-2.853-1.367c-3.026-1.578-4.65-3.914-5.22-6.395-.616-2.68-.08-5.436.92-7.193 2.93-5.148 22.07-33.692 22.07-33.692.598-.883.988-2.005.972-3.064-.018-.985-.402-1.91-.888-2.667l-20.44-31.413c-.317-.52-.32-1.043-.083-1.434.274-.453.85-.694 1.56-.514l16.174 4.49c.992.294 1.787.673 2.435 1.2.54.438.972.975 1.385 1.6l15.947 25.165c1.737 2.795 1.487 5.315-.504 8.526l-28.2 45.91c-.41.61-.96 1.036-1.646 1.14-.104.015-.21.023-.317.023-.41 0-.84-.113-1.316-.317"/></clipPath><linearGradient id="e" gradientTransform="scale(116.4851) rotate(-66.563 2.2 -.44)" gradientUnits="userSpaceOnUse" x2="1"><stop offset="0" stop-color="#ffc63f"/><stop offset=".637" stop-color="#f58400"/><stop offset="1" stop-color="#f58400"/></linearGradient><clipPath id="f"><path d="M128.993 197.47c-.57-.14-1.05-.5-1.416-1.023l-19.81-31.865c-1.992-3.21-2.24-5.73-.504-8.526l20.218-32.41c.442-.647.997-1.098 1.64-1.25.58-.14 1.203-.028 1.794.296l2.96 1.73c3.717 2.174 6.097 8.204 2.734 13.422l-11.745 18.12c-1.882 2.9-2.078 4.422-.08 7.455l11.53 17.566c1.968 3.006 2.408 5.97 1.796 8.53-.63 2.625-2.386 4.795-4.7 6.2l-2.68 1.522c-.393.19-.803.297-1.207.297a2.21 2.21 0 0 1-.53-.064"/></clipPath><linearGradient id="g" gradientTransform="scale(116.4838) rotate(-66.562 1.646 -.077)" gradientUnits="userSpaceOnUse" x2="1"><stop offset="0" stop-color="#ffc63f"/><stop offset=".637" stop-color="#f58400"/><stop offset="1" stop-color="#f58400"/></linearGradient><clipPath id="h"><path d="M0 218.5h249.5V0H0v218.5z"/></clipPath></defs><g clip-path="url(#a)" transform="matrix(.43374 0 0 -.43374 -3.22 91.277)"><path d="M165.202 115.395c1.493 0 2.305.652 2.305 2.225 0 1.568-.747 2.27-2.275 2.267-1.62 0-2.264-.75-2.264-2.326 0-1.456.746-2.165 2.234-2.165M153.59 85.33c.01-.163.037-.312.125-.43a.766.766 0 0 1 .585-.296h2.09c.235.008.44.125.57.3.09.126.135.275.145.427v36.43a.73.73 0 0 1-.323.583.754.754 0 0 1-.75.033 128.69 128.69 0 0 1-2.023-1.12.827.827 0 0 1-.275-.263.983.983 0 0 1-.145-.47V85.33zM163.488 85.33c.01-.16.05-.304.136-.42a.75.75 0 0 1 .59-.306h2.09c.233.006.44.125.57.3.09.126.137.27.146.427v24.528a.78.78 0 0 1-.176.46.757.757 0 0 1-.54.265h-2.09a.797.797 0 0 1-.52-.223.755.755 0 0 1-.206-.502v-24.53zM91.773 109.64a.73.73 0 0 1-.57.71c-1.532.38-4.015.877-6.69.88-7.13 0-9.08-4.17-9.08-6.93 0-3.136 2.47-5.466 5.578-6.763l2.95-1.242c2.172-.922 5.153-2.113 5.153-5.037 0-2.11-1.39-4.166-6.224-4.166-2.925 0-4.718.344-6.116.746-.478.143-.916-.254-.916-.697V85.53a.748.748 0 0 1 .138-.426.808.808 0 0 1 .424-.28c1.43-.376 3.838-.87 6.86-.87 7.747 0 9.534 4.496 9.534 7.203 0 3.728-2.888 6.056-6.255 7.465l-2.433 1.03c-4.93 2.053-5.19 3.678-5.19 4.708 0 1.246.88 3.736 5.482 3.736 2.642 0 5.14-.492 6.548-.824.283-.068.478.008.605.133.142.144.192.353.2.51v1.728M147.17 107.282c-1.36 3.027-5.09 3.95-8.1 3.95-3.035 0-5.348-.622-7.912-1.882a1.993 1.993 0 0 1-.645-.466.89.89 0 0 1-.227-.567v-1.55c.01-.294.142-.508.336-.626a.713.713 0 0 1 .677-.034c2.184 1.217 4.63 1.987 7.15 1.987 3.213 0 5.838-1.082 5.872-4.874v-2.38h-1.652c-9.017 0-14.555-3.517-14.555-9.312 0-3.278 1.688-5.19 4.014-6.278.52.93 1.067 1.844 1.637 2.748-1.2.69-2.02 1.826-2.02 3.698 0 5.625 6.84 6.385 11.217 6.385h1.327l.035-10.66c-1.685-.38-3.47-.435-5.223-.435-1.82 0-3.864.17-5.335 1.013a62.162 62.162 0 0 1-1.638-2.748c2.125-.993 4.783-1.298 7.195-1.298 2.66 0 5.287.33 7.92.812.194.053.34.14.437.272.094.123.133.28.142.453v17.73c0 1.412-.103 2.76-.653 4.062M191.182 107.282c-1.36 3.027-5.09 3.95-8.1 3.95-3.035 0-5.35-.622-7.912-1.882a2.01 2.01 0 0 1-.646-.466.895.895 0 0 1-.226-.567v-1.55c.01-.294.14-.508.336-.626.2-.12.46-.14.677-.034 2.186 1.217 4.633 1.987 7.152 1.987 3.213 0 5.837-1.082 5.872-4.874v-2.38h-1.653c-9.015 0-14.553-3.517-14.553-9.312 0-5.69 5.066-7.287 9.78-7.535.578 1.005 1.162 2.005 1.753 2.998-.184 0-.368-.005-.55-.005-3.305 0-7.357.543-7.357 4.71 0 5.626 6.843 6.386 11.22 6.386h1.326l.034-10.66c-1.51-.34-3.1-.416-4.674-.43-.59-.992-1.175-1.992-1.754-2.997.482-.025.963-.04 1.43-.04 2.66 0 5.287.33 7.92.81.195.054.34.142.437.273.094.123.134.28.143.453v17.73c0 1.412-.105 2.76-.654 4.062M48.4 85.528c-.084.292-4.042 13.53-7.397 24.206a67.964 67.964 0 0 1-2.452-3.74l2.695-9.16H28.603l6.26 21.7 3.688-12.54a67.964 67.964 0 0 0 2.453 3.74c-1.82 5.8-3.464 10.845-4.21 12.646a.736.736 0 0 1-.28.314.927.927 0 0 1-.418.117H33.66a.77.77 0 0 1-.425-.14.84.84 0 0 1-.258-.34c-2.164-5.294-11.436-36.308-11.58-36.798-.06-.244-.03-.473.087-.643a.695.695 0 0 1 .57-.29h2.386c.2.006.355.057.47.16a.812.812 0 0 1 .217.344c.094.297 2.54 8.584 2.54 8.584h14.45l2.55-8.6a.69.69 0 0 1 .224-.335.84.84 0 0 1 .482-.15h2.31c.325.007.53.128.64.298.124.196.122.446.077.628M104.125 83.952c.81 0 1.617.05 2.413.156.448.06.88.115 1.31.248.19.06.36.186.47.352.074.115.108.242.12.387v1.532a.753.753 0 0 1-.28.56c-.16.128-.37.18-.605.138-1.05-.22-2.063-.34-3.162-.34-3.31 0-4.002 1.73-4.002 4.705v15.692h6.674c.193.01.386.088.523.232a.73.73 0 0 1 .205.492v1.748a.736.736 0 0 1-.21.502.783.783 0 0 1-.518.223h-6.69v6.327a.733.733 0 0 1-.328.588.736.736 0 0 1-.743.03 144.26 144.26 0 0 1-2.025-1.118.856.856 0 0 1-.298-.307.948.948 0 0 1-.104-.427L96.87 91.58c0-5.09 1.844-7.628 7.255-7.628M126.9 107.545a.825.825 0 0 1 .236.525v1.905a.835.835 0 0 1-.166.476.814.814 0 0 1-.453.296c-.746.184-1.49.322-2.3.322-4.112 0-7.03-2.54-8.33-6.332v5.12a.757.757 0 0 1-.195.492.757.757 0 0 1-.53.23h-1.824a.81.81 0 0 1-.518-.19.743.743 0 0 1-.236-.532v-24.53a.73.73 0 0 1 .726-.724h2.09a.74.74 0 0 1 .715.724V97.81c0 2.762.49 5.356 2.464 7.417 1.494 1.507 3.468 2.375 5.576 2.373a8.877 8.877 0 0 0 2.097-.233c.282-.062.5.03.648.178M51.722 110.58a.73.73 0 0 1-.523-.233.79.79 0 0 1-.198-.493v-14.05c0-1.838 0-4.108.647-5.844 1.462-4.217 5.772-6.008 9.626-6.008 1.943 0 4.053.432 5.84 1.41 4.21 2.38 4.5 6.547 4.5 11.256v13.236a.783.783 0 0 1-.186.485.755.755 0 0 1-.535.237h-2.152a.763.763 0 0 1-.53-.236.766.766 0 0 1-.194-.486l.03-15.02c0-3.9-1.1-7.74-6.512-7.74-4.635 0-7.034 2.376-7.034 7.626v15.134a.803.803 0 0 1-.14.43.734.734 0 0 1-.585.295H51.72z" fill="#3d3935"/></g><g clip-path="url(#b)" transform="matrix(.43374 0 0 -.43374 -3.22 91.277)"><path d="M221.353 119.034l-15.186-4.03c-3.412-.904-4.12-4.92-.34-8.583 3.207-3.107 7.582-3.887 9.783-1.086l7.267 11.823c.33.564.25 1.1-.077 1.467-.255.284-.65.45-1.08.45a1.73 1.73 0 0 1-.367-.04" fill="url(#c)"/></g><g clip-path="url(#d)" transform="matrix(.43374 0 0 -.43374 -3.22 91.277)"><path d="M214.7 210.126l-2.853-1.367c-3.026-1.578-4.65-3.914-5.22-6.395-.616-2.68-.08-5.436.92-7.193 2.93-5.148 22.07-33.692 22.07-33.692.598-.883.988-2.005.972-3.064-.018-.985-.402-1.91-.888-2.667l-20.44-31.413c-.317-.52-.32-1.043-.083-1.434.274-.453.85-.694 1.56-.514l16.174 4.49c.992.294 1.787.673 2.435 1.2.54.438.972.975 1.385 1.6l15.947 25.165c1.737 2.795 1.487 5.315-.504 8.526l-28.2 45.91c-.41.61-.96 1.036-1.646 1.14-.104.015-.21.023-.317.023-.41 0-.84-.113-1.316-.317" fill="url(#e)"/></g><g clip-path="url(#f)" transform="matrix(.43374 0 0 -.43374 -3.22 91.277)"><path d="M128.993 197.47c-.57-.14-1.05-.5-1.416-1.023l-19.81-31.865c-1.992-3.21-2.24-5.73-.504-8.526l20.218-32.41c.442-.647.997-1.098 1.64-1.25.58-.14 1.203-.028 1.794.296l2.96 1.73c3.717 2.174 6.097 8.204 2.734 13.422l-11.745 18.12c-1.882 2.9-2.078 4.422-.08 7.455l11.53 17.566c1.968 3.006 2.408 5.97 1.796 8.53-.63 2.625-2.386 4.795-4.7 6.2l-2.68 1.522c-.393.19-.803.297-1.207.297a2.21 2.21 0 0 1-.53-.064" fill="url(#g)"/></g><g clip-path="url(#h)" transform="matrix(.43374 0 0 -.43374 -3.22 91.277)"><path d="M66.736 47.807c0-2.395-.14-4.45-2.42-5.742-1.323-.76-2.645-.76-3.18-.76-2.31 0-4.448.984-5.236 3.012-.394 1.01-.424 2.222-.424 3.35v7.08c.006.09.037.185.103.257.064.073.158.116.27.12h1.806a.378.378 0 0 0 .304-.153.417.417 0 0 0 .073-.222l.005-7.336c0-1.605.17-3.855 3.153-3.855 2.732 0 2.984 2.055 2.984 3.687v7.504c.003.09.038.184.103.256a.366.366 0 0 0 .272.12h1.81a.372.372 0 0 0 .376-.376v-6.94zM44.18 47.807c0-2.395-.14-4.45-2.42-5.742-1.322-.76-2.645-.76-3.182-.76-2.307 0-4.446.984-5.235 3.012-.394 1.01-.42 2.222-.42 3.35v7.08c.002.09.035.185.1.257.065.073.16.116.273.12H35.1a.377.377 0 0 0 .305-.153.416.416 0 0 0 .072-.222l.007-7.336c0-1.605.168-3.855 3.152-3.855 2.73 0 2.983 2.055 2.983 3.687v7.504c.004.09.036.184.1.256.066.073.16.116.274.12h1.81a.376.376 0 0 0 .304-.153.392.392 0 0 0 .072-.222v-6.94z" fill="#3d3935"/><path d="M166.297 43.647a5.736 5.736 0 0 0-1.343-.148c-1.83-.002-2.28.816-2.28 2.252v7.234h3.42c.102.005.203.046.275.12.063.065.1.153.105.255v1.39a.386.386 0 0 1-.38.375l-3.42-.002v3.487a.376.376 0 0 1-.558.32l-1.796-1.087a.47.47 0 0 1-.154-.166.516.516 0 0 1-.053-.223v-11.14c0-1.66.056-3.462 1.773-4.39.984-.535 2.196-.535 2.533-.535.485 0 .916.028 1.35.083.233.03.456.06.68.13.098.028.187.095.243.183.04.058.058.12.063.195v1.304a.392.392 0 0 1-.144.29.39.39 0 0 1-.315.073" fill="#ffab00"/><path d="M162.674 55.123v3.486a.375.375 0 0 1-.17.303.38.38 0 0 1-.387.017l-1.796-1.086a.48.48 0 0 1-.154-.166.523.523 0 0 1-.053-.225v-11.14" fill="#ffab00"/><path d="M53.355 43.647c-.6-.13-.953-.148-1.342-.148-1.83-.002-2.28.816-2.28 2.252v7.234h3.423c.1.005.2.046.27.12a.38.38 0 0 1 .11.255l-.002 1.39a.386.386 0 0 1-.38.375l-3.42-.002v3.487a.378.378 0 0 1-.557.32l-1.796-1.087a.473.473 0 0 1-.155-.166.53.53 0 0 1-.054-.223v-11.14c0-1.66.06-3.462 1.777-4.39.984-.535 2.193-.535 2.533-.535.486 0 .916.028 1.35.083.23.03.455.06.68.13.097.028.188.095.244.183.04.058.056.12.06.195v1.304a.386.386 0 0 1-.144.29.39.39 0 0 1-.316.073M72.137 47.637c0 1.94.31 3.63 1.746 4.617.93.647 1.83.676 2.224.676.474 0 .837-.063 1.117-.14a.347.347 0 0 1 .337.09c.082.08.118.19.123.275v1.658a.476.476 0 0 1-.085.256.423.423 0 0 1-.236.15 4.805 4.805 0 0 1-1.196.16c-2.137 0-3.494-1.32-4.168-3.292v2.662a.4.4 0 0 1-.1.254.395.395 0 0 1-.278.12h-1.652a.412.412 0 0 1-.27-.098.382.382 0 0 1-.122-.276V41.996a.375.375 0 0 1 .102-.255.403.403 0 0 1 .277-.12h1.812a.384.384 0 0 1 .37.376v5.64z" fill="#3d3935"/><path d="M127.18 41.998a.39.39 0 0 1 .07-.22.393.393 0 0 1 .308-.157h1.783a.385.385 0 0 1 .373.378V54.75a.392.392 0 0 1-.09.238.392.392 0 0 1-.282.137h-1.782a.414.414 0 0 1-.272-.113.4.4 0 0 1-.105-.262V41.998zM124.195 61.182a.376.376 0 0 1-.557.32l-1.795-1.084a.478.478 0 0 1-.156-.168.49.49 0 0 1-.053-.222V41.996a.38.38 0 0 1 .377-.377h1.813a.38.38 0 0 1 .284.14c.055.067.085.15.088.236v19.186zM128.473 57.377c-1.097 0-1.52.506-1.52 1.547 0 1.015.48 1.465 1.466 1.465 1.067 0 1.52-.423 1.52-1.493 0-1.014-.453-1.52-1.467-1.52M154.624 41.998a.416.416 0 0 1 .07-.22.395.395 0 0 1 .307-.157h1.786a.387.387 0 0 1 .37.377V54.75a.383.383 0 0 1-.37.375h-1.784a.415.415 0 0 1-.27-.113.403.403 0 0 1-.106-.262V41.998zM155.92 57.377c-1.1 0-1.522.506-1.522 1.547 0 1.015.48 1.465 1.464 1.465 1.07 0 1.52-.423 1.52-1.493 0-1.014-.45-1.52-1.463-1.52M104.297 49.102c0-1.887-.17-4.28-1.408-5.8-.76-.9-2.17-1.997-4.956-1.997-3.83 0-5.404 2.447-5.882 3.883-.253.79-.395 1.605-.395 3.322v12.66c.003.073.028.15.077.21a.318.318 0 0 0 .24.107h2.04a.314.314 0 0 0 .23-.108.343.343 0 0 0 .088-.21V48.65c0-1.884.253-2.898.844-3.657.958-1.24 2.364-1.24 2.872-1.24 1.153 0 2.138.34 2.813 1.267.705.984.734 2.336.734 3.52v12.63c.004.073.026.15.077.21a.316.316 0 0 0 .24.107h2.068a.316.316 0 0 0 .232-.108.343.343 0 0 0 .087-.21V49.1zM118.764 41.99a.386.386 0 0 0-.372-.377h-1.813c-.102.006-.2.043-.27.115a.393.393 0 0 0-.108.262v7.533c0 2.252-.928 3.574-2.815 3.574-.365 0-1.21-.084-1.97-.703-1.35-1.097-1.38-2.927-1.38-4.504v-5.9a.385.385 0 0 0-.37-.377h-1.812a.41.41 0 0 0-.273.115.406.406 0 0 0-.106.262v12.76c.007.103.04.193.106.26.072.072.168.11.273.115h1.7a.384.384 0 0 0 .37-.375v-2.272c1.183 2.73 3.292 2.955 4.223 2.955.477 0 1.772-.056 2.872-.873 1.687-1.265 1.744-3.18 1.744-5.066V41.99zM135.145 52.563c.62 1.575 2.055 2.87 4.053 2.87 1.098 0 3.097-.337 3.773-3.01.563 1.266 1.662 3.01 4.335 3.01.563 0 2.364-.112 3.49-1.632.902-1.208.902-2.925.902-4.333V41.99a.402.402 0 0 0-.092-.24.38.38 0 0 0-.28-.137h-1.812a.41.41 0 0 0-.272.115.395.395 0 0 0-.106.262v7.533c0 1.154-.027 2.252-.927 2.982-.65.508-1.38.565-1.633.565-.563 0-1.576-.17-2.365-1.324-.704-1.04-.76-2.082-.76-3.266v-6.49a.384.384 0 0 0-.372-.377h-1.813a.406.406 0 0 0-.27.115.39.39 0 0 0-.108.262v7.138c0 2.702-.816 3.942-2.533 3.942-1.38 0-2.195-1.07-2.42-1.408-.705-1.04-.705-2.14-.705-3.35V41.99a.383.383 0 0 0-.37-.377h-1.814a.406.406 0 0 0-.272.115.39.39 0 0 0-.106.262v12.76c.005.103.04.193.106.26a.41.41 0 0 0 .272.115h1.7a.384.384 0 0 0 .37-.375l.03-2.188zM172.864 55.463c-4.024 0-6.024-3.463-6.024-7.037 0-2.984 1.492-7.117 7.29-7.117 1.11 0 2.425.132 3.403.475a.392.392 0 0 1 .18.137.402.402 0 0 1 .073.22v1.247a.4.4 0 0 1-.134.286.368.368 0 0 1-.36.07 9.108 9.108 0 0 0-2.742-.416c-3.264 0-4.838 1.803-5.092 4.223h3.524v1.717h-3.552c.028.505.282 4.193 3.462 4.193 2.14 0 3.123-1.998 3.123-3.574v-.62h-3.033v-1.717h5.024c.1.004.19.04.258.1a.39.39 0 0 1 .115.206c.102.542.114 1.095.114 1.664 0 3.35-2.196 5.94-5.63 5.94" fill="#ffab00"/><path d="M83.69 55.463c-4.027 0-6.025-3.463-6.025-7.037 0-2.984 1.49-7.117 7.29-7.117 1.11 0 2.425.132 3.4.475.075.028.14.074.184.137a.4.4 0 0 1 .07.22v1.247a.39.39 0 0 1-.135.286.366.366 0 0 1-.358.07 9.1 9.1 0 0 0-2.74-.416c-3.268 0-4.84 1.803-5.094 4.223h3.7v1.717h-3.73c.03.505.283 4.193 3.463 4.193 2.14 0 3.125-1.998 3.125-3.574v-.62h-2.857v-1.717h4.848c.1.004.19.04.257.1.06.054.1.124.115.206.104.542.115 1.095.115 1.664 0 3.35-2.193 5.94-5.628 5.94" fill="#3d3935"/><path d="M191.665 61.486a.377.377 0 0 1-.386.016l-1.798-1.084a.48.48 0 0 1-.154-.168.486.486 0 0 1-.054-.223V53.38c-.506.702-1.52 2.053-3.828 2.053-2.956 0-5.77-2.447-5.77-7.037 0-3.37 1.604-6.517 4.868-6.995.108.755.204 1.514.274 2.287-1.782.606-2.552 2.858-2.552 4.598 0 4.023 2.307 4.98 3.63 4.98 2.563 0 3.49-2.87 3.49-4.812 0-.31-.14-4.926-3.603-4.926-.35 0-.67.06-.965.16a44.19 44.19 0 0 0-.274-2.286c.28-.04.568-.068.873-.068 2.675 0 3.633 1.857 4.056 2.73v-2.066a.378.378 0 0 1 .1-.256.407.407 0 0 1 .277-.12h1.614a.39.39 0 0 1 .372.377V61.18a.375.375 0 0 1-.17.306M10.17 62.58a.755.755 0 0 1-.512-.07l-.785-.445c-.677-.41-1.192-1.048-1.377-1.817-.18-.75-.05-1.62.527-2.498L11.4 52.6c.587-.89.53-1.334-.022-2.184l-3.44-5.31c-.987-1.53-.29-3.297.8-3.934l.867-.508a.73.73 0 0 1 .527-.086c.187.043.35.176.48.365l5.925 9.498c.508.82.436 1.56-.148 2.5l-5.807 9.34a.73.73 0 0 1-.414.3" fill="#ffab00"/><path d="M24.5 41.992a.407.407 0 0 0-.115-.27.374.374 0 0 0-.26-.107h-1.928c-.1.002-.19.04-.257.106a.398.398 0 0 0-.12.272v19.16c.006.1.045.2.117.27a.39.39 0 0 0 .26.11h9.062a.38.38 0 0 0 .378-.377V59.5a.378.378 0 0 0-.38-.373H24.5v-6.374h6.206a.414.414 0 0 0 .27-.116.38.38 0 0 0 .107-.26v-1.476a.39.39 0 0 0-.105-.258.408.408 0 0 0-.272-.12H24.5v-8.534z" fill="#3d3935"/></g></svg>