<svg xmlns="http://www.w3.org/2000/svg" xmlns:xlink="http://www.w3.org/1999/xlink" viewBox="0 0 144.29518 88.467602" height="88.468" width="144.295"><defs><path id="a" d="M3.905 8.11L0 4l-3.905 4.11.778-5.616-5.647-.49L-3.9-.89l-3.136-4.72 5.3 2.006L0-9l1.736 5.396 5.3-2.007L3.9-.89l4.874 2.893-5.647.49z"/><path id="b" d="M-5.29 7.28l1.486-6.044L-8.56-2.78l6.21-.456L0-9l2.35 5.764 6.21.455-4.756 4.016L5.29 7.28 0 4z"/></defs><path fill="#008700" d="M5.393 46.274l67.794-7.987.932 7.91-67.795 7.987zM1 8.987L68.794 1l.932 7.91-67.794 7.987z"/><path d="M1.932 16.897L69.726 8.91l.266 2.26-67.794 7.987zM5.127 44.014l67.794-7.987.267 2.26-67.794 7.987z"/><path fill="#0032ff" d="M2.198 19.157l67.794-7.988 2.93 24.857-67.795 7.987z"/><path d="M35.032 15.86c-10.9 4.722-9.336 13.13-4.802 20.5l-3.815 4.573 7.464-3.743-1.226-10.395c2.047-4.022 6.566-4.554 9.49-1.118l1.226 10.395 8.13 1.906-4.774-3.562c2.697-8.222 2.264-16.763-9.434-18.82l-.558 4.99-1.702-4.725z" fill="#fff"/><path d="M41.814 26.753l-2.398 2.34 1.386 3.157-2.892-1.7-2.415 2.322.61-3.39-2.88-1.724 3.27-.396.636-3.386 1.41 3.146 3.274-.37z" fill="#fff"/><g transform="matrix(1.04702 .14692 -.17365 1.11465 -80.797 -75.054)"><path d="M156.216 47.64h65.714v39.43h-65.714z"/><path fill="#fe0000" d="M156.216 67.355h65.714V87.07h-65.714z"/><ellipse transform="matrix(.99997 .00795 .00853 .99996 0 0)" ry="9.177" rx="9.848" cx="188.518" cy="65.858" fill="#fdfc01"/></g><g transform="translate(30.856 46.176) scale(.00273)"><path d="M0 0h30240v15120H0V0z" fill="#00008b"/><use xlink:href="#a" transform="matrix(252 0 0 252 7560 11340)" width="100%" height="100%" fill="#fff"/><use xlink:href="#a" transform="matrix(120 0 0 120 22680 12600)" width="100%" height="100%" fill="#fff"/><use xlink:href="#a" transform="matrix(120 0 0 120 18900 6615)" width="100%" height="100%" fill="#fff"/><use xlink:href="#a" transform="matrix(120 0 0 120 22680 2520)" width="100%" height="100%" fill="#fff"/><use xlink:href="#a" transform="matrix(120 0 0 120 26040 5607)" width="100%" height="100%" fill="#fff"/><use xlink:href="#b" transform="matrix(70 0 0 70 24192 8190)" width="100%" height="100%" fill="#fff"/><path d="M6300 0h2520v2520h6300v2520H8820v2520H6300V5040H0V2520h6300V0z" fill="#fff"/><path id="c" d="M0 0h1690.467L15120 6714.766V7560h-1690.467L0 845.234V0z" fill="#fff"/><use xlink:href="#c" transform="matrix(-1 0 0 1 15120 0)" width="100%" height="100%" fill="#fff"/><path d="M6804 0h1512v3024h6804v1512H8316v3024H6804V4536H0V3024h6804V0z" fill="red"/><path id="d" d="M0 0l5040 2520H3913.022L0 563.49V0zm15120 0h-1126.978l-5040 2520H10080L15120 0z" fill="red"/><use xlink:href="#d" transform="rotate(180 7560 3780)" width="100%" height="100%" fill="red"/></g></svg>