<svg xmlns="http://www.w3.org/2000/svg" viewBox="0 0 230.31426 121.176" height="129.254" width="245.669"><defs><clipPath id="a"><path d="M18.346 589.402h187.087v100.913H18.346V589.402z"/></clipPath></defs><g clip-path="url(#a)" transform="matrix(1.25 0 0 -1.25 -22.933 862.893)"><path d="M99.296 668.25h1.625v-6.442c0-.872-.063-1.53-.19-1.975a4.29 4.29 0 0 0-.472-1.108 3.517 3.517 0 0 0-.686-.792c-.9-.775-2.076-1.162-3.528-1.162-1.48 0-2.666.385-3.56 1.155-.27.238-.5.504-.686.8a4.107 4.107 0 0 0-.464 1.084c-.122.427-.182 1.1-.182 2.014v6.426h1.624v-6.44c0-1.067.122-1.81.367-2.226.244-.417.616-.752 1.117-1.003.5-.25 1.088-.377 1.768-.377.967 0 1.755.252 2.364.755.32.27.55.59.692.96.14.367.212.998.212 1.89v6.442zM113.434 668.25h1.54V656.9h-1.394l-7.585 8.74v-8.74h-1.518v11.35h1.307l7.65-8.817v8.817zM118.672 668.25h1.625V656.9h-1.625v11.35zM131.214 668.25h1.63l-4.804-11.394h-.39l-4.83 11.394h1.632l3.38-7.967 3.382 7.967zM135.375 668.25h6.435v-1.454H137v-3.463h4.64v-1.453H137v-3.527h4.96V656.9h-6.585v11.35zM147.095 666.86h-.485v-3.57h.615c.82 0 1.382.07 1.688.21.305.14.543.353.712.636.17.283.256.606.256.968 0 .356-.094.678-.283.967-.19.29-.455.493-.797.612-.344.12-.912.178-1.705.178m-2.11-9.96v11.35h2.843c1.145 0 2.057-.285 2.73-.854.675-.568 1.01-1.338 1.01-2.307 0-.662-.164-1.234-.495-1.716-.333-.482-.81-.842-1.427-1.08.363-.24.72-.564 1.067-.976.35-.412.836-1.13 1.464-2.153.396-.645.713-1.13.95-1.454l.602-.81h-1.935l-.494.747a1.806 1.806 0 0 1-.097.137l-.315.447-.503.83-.544.886a8.765 8.765 0 0 1-.92 1.112c-.28.276-.53.475-.754.596-.225.122-.603.183-1.134.183h-.422V656.9h-1.625zM159.042 661.658l-1.235.75c-.774.473-1.326.94-1.654 1.396-.327.458-.49.985-.49 1.58 0 .894.31 1.62.927 2.178.62.558 1.423.837 2.412.837.946 0 1.814-.267 2.602-.797v-1.84c-.814.788-1.692 1.182-2.63 1.182-.53 0-.965-.123-1.306-.368-.34-.246-.51-.56-.51-.943 0-.34.126-.66.377-.956.25-.297.655-.61 1.21-.936l1.238-.735c1.38-.83 2.07-1.883 2.07-3.162 0-.91-.304-1.652-.912-2.22-.608-.57-1.4-.855-2.374-.855-1.12 0-2.14.35-3.06 1.053v2.052c.878-1.115 1.895-1.673 3.05-1.673.51 0 .932.142 1.272.425.338.283.508.64.508 1.065 0 .69-.5 1.346-1.494 1.966M165.107 668.25h1.625V656.9h-1.625v11.35zM169.53 668.25H179v-1.454h-3.954V656.9h-1.624v9.896h-3.89v1.454zM181.81 668.25h1.625V656.9h-1.625v11.35zM187.217 668.25h6.434v-1.454h-4.808v-3.463h4.638v-1.453h-4.638v-3.527h4.96V656.9h-6.585v11.35zM199.586 661.658l-1.235.75c-.774.473-1.324.94-1.65 1.396a2.64 2.64 0 0 0-.493 1.58c0 .894.308 1.62.93 2.178.617.558 1.42.837 2.41.837.946 0 1.813-.267 2.603-.797v-1.84c-.816.788-1.693 1.182-2.632 1.182-.53 0-.965-.123-1.304-.368-.34-.246-.51-.56-.51-.943 0-.34.125-.66.376-.956.25-.297.653-.61 1.21-.936l1.238-.735c1.38-.83 2.07-1.883 2.07-3.162 0-.91-.304-1.652-.913-2.22-.61-.57-1.4-.855-2.375-.855-1.12 0-2.14.35-3.06 1.053v2.052c.878-1.115 1.894-1.673 3.05-1.673.51 0 .934.142 1.272.425.34.283.51.64.51 1.065 0 .69-.5 1.346-1.496 1.966M97.417 644.742l-1.85 4.112-1.706-4.112h3.557zm-2.425 6.605h1.138l5.11-11.415h-1.66l-1.513 3.356h-4.84l-1.412-3.356h-1.668l4.845 11.415zM111.307 651.284h1.625v-6.442c0-.873-.063-1.53-.19-1.974a4.25 4.25 0 0 0-.473-1.11 3.513 3.513 0 0 0-.687-.792c-.9-.775-2.076-1.162-3.528-1.162-1.48 0-2.666.384-3.56 1.154-.27.237-.5.505-.686.8a4.14 4.14 0 0 0-.465 1.084c-.12.428-.182 1.1-.182 2.015v6.426h1.624v-6.44c0-1.067.123-1.81.367-2.226.245-.417.617-.752 1.117-1.003.5-.252 1.09-.378 1.77-.378.967 0 1.755.252 2.363.756.32.27.55.59.693.958.14.368.21.998.21 1.892v6.44zM119.25 644.692l-1.234.75c-.774.473-1.326.94-1.653 1.396-.328.458-.49.985-.49 1.58 0 .895.308 1.62.927 2.178.618.558 1.422.837 2.412.837.945 0 1.812-.266 2.602-.796v-1.84c-.815.788-1.693 1.182-2.632 1.182-.53 0-.965-.124-1.304-.37-.34-.245-.51-.56-.51-.943 0-.34.125-.658.376-.955.25-.297.654-.61 1.21-.935l1.238-.736c1.38-.828 2.07-1.882 2.07-3.16 0-.912-.304-1.652-.913-2.22-.61-.57-1.4-.856-2.375-.856-1.12 0-2.14.35-3.06 1.053v2.052c.877-1.116 1.894-1.674 3.05-1.674.508 0 .933.142 1.272.425.34.285.508.64.508 1.066 0 .69-.498 1.346-1.495 1.966M124.33 651.284h9.47v-1.454h-3.954v-9.897h-1.625v9.897h-3.89v1.454zM138.764 649.894h-.486v-3.57h.615c.82 0 1.383.07 1.688.21.305.14.543.353.713.636.17.283.255.606.255.967 0 .357-.094.68-.283.967-.19.29-.454.493-.798.612-.342.12-.91.178-1.703.178m-2.11-9.96v11.35h2.84c1.148 0 2.058-.285 2.733-.854.673-.568 1.01-1.338 1.01-2.308 0-.66-.166-1.23-.497-1.714-.33-.482-.808-.842-1.427-1.08a5.05 5.05 0 0 0 1.07-.976c.346-.413.833-1.13 1.46-2.153.397-.646.713-1.13.953-1.455l.6-.812h-1.932l-.495.747c-.018.027-.05.074-.098.138l-.316.447-.503.83-.544.885a8.928 8.928 0 0 1-.92 1.112c-.28.276-.533.475-.758.596-.224.122-.602.183-1.132.183h-.422v-4.937h-1.625zM153.915 644.742l-1.85 4.112-1.706-4.112h3.555zm-2.425 6.605h1.138l5.112-11.415h-1.662l-1.512 3.356h-4.84l-1.412-3.356h-1.668l4.844 11.415zM160.252 651.284h1.625v-9.876h5.108v-1.475h-6.733v11.35zM169.655 651.284h1.625v-11.35h-1.625v11.35zM181.07 644.742l-1.85 4.112-1.705-4.112h3.556zm-2.424 6.605h1.138l5.112-11.415h-1.662l-1.512 3.356h-4.84l-1.41-3.356h-1.67l4.844 11.415z"/><path d="M91.83 625.337h.88c1.253 0 1.54.954 1.54 1.43 0 .772-.49 1.427-1.568 1.427h-.853v-2.857zm-.554 3.354h1.496c1.423 0 2.05-1.016 2.05-1.924 0-.99-.774-1.926-2.044-1.926h-1.502v3.85zM96.122 624.84h-.553v3.85h.552v-3.85zM98.86 627.844c-.327.31-.643.4-.903.4-.355 0-.61-.186-.61-.456 0-.74 1.667-.73 1.667-1.954 0-.605-.458-1.045-1.08-1.045a1.7 1.7 0 0 0-1.078.355v.7c.283-.36.638-.56 1.017-.56.43 0 .627.272.627.487 0 .796-1.666.886-1.666 1.942 0 .627.463 1.028 1.17 1.028.292 0 .586-.09.857-.27v-.628zM102.954 627.832c-.473.277-.88.4-1.325.4-.883 0-1.538-.626-1.538-1.473 0-.865.632-1.463 1.558-1.463.435 0 .91.152 1.344.435v-.605a2.833 2.833 0 0 0-1.395-.338c-1.446 0-2.08 1.11-2.08 1.918 0 1.175.887 2.033 2.112 2.033.396 0 .797-.095 1.322-.315v-.593zM105.626 625.297c.864 0 1.502.627 1.502 1.468 0 .847-.638 1.468-1.502 1.468-.858 0-1.497-.62-1.497-1.468 0-.84.638-1.468 1.496-1.468m0 3.444c1.27 0 2.073-.902 2.073-1.975 0-1.04-.78-1.976-2.085-1.976-1.26 0-2.055.93-2.055 1.975 0 1.067.818 1.976 2.066 1.976M109.562 624.806h-.112l-1.666 3.885h.554l1.157-2.704 1.152 2.705h.548l-1.633-3.884zM113.86 628.194h-1.63v-1.163h1.574v-.496h-1.575v-1.197h1.68v-.497h-2.235v3.85h2.185v-.496zM115.12 627.008h.356c.593 0 .762.305.757.627-.006.36-.22.58-.757.58h-.356v-1.207zm.418 1.683c.78 0 1.265-.41 1.265-1.078 0-.446-.23-.78-.643-.943.35-.232.564-.588.858-1.068.164-.265.26-.396.525-.762h-.66l-.51.79c-.507.79-.74.88-1.02.88h-.233v-1.67h-.553v3.85h.97zM123.45 625.337h1.74v-.497h-2.293v3.85h.553v-3.353zM127.91 628.194h-1.63v-1.163h1.575v-.496h-1.575v-1.197h1.682v-.497h-2.236v3.85h2.185v-.496zM129.447 626.472h1.198l-.62 1.395-.578-1.395zm2.502-1.632h-.566l-.514 1.135h-1.637l-.486-1.135h-.564l1.655 3.874h.39l1.72-3.874zM132.995 627.008h.356c.594 0 .763.305.758.627-.006.36-.22.58-.757.58h-.355v-1.207zm.418 1.683c.78 0 1.265-.41 1.265-1.078 0-.446-.23-.78-.643-.943.35-.232.564-.588.858-1.068.164-.265.26-.396.525-.762h-.66l-.51.79c-.507.79-.74.88-1.02.88h-.233v-1.67h-.553v3.85h.97zM139.46 624.84h-.473l-2.575 2.965v-2.965h-.52v3.85h.44l2.61-2.98v2.98h.52v-3.85zM145.792 625.337h1.74v-.497h-2.293v3.85h.552v-3.353zM150.253 628.194h-1.63v-1.163h1.574v-.496h-1.575v-1.197h1.682v-.497h-2.236v3.85h2.185v-.496zM151.79 626.472h1.198l-.622 1.395-.576-1.395zm2.502-1.632h-.565l-.514 1.135h-1.638l-.485-1.135h-.565l1.655 3.874h.39l1.722-3.874zM155.33 625.337h.882c1.253 0 1.54.954 1.54 1.43 0 .772-.49 1.427-1.57 1.427h-.85v-2.857zm-.552 3.354h1.496c1.423 0 2.05-1.016 2.05-1.924 0-.99-.774-1.926-2.044-1.926h-1.502v3.85z" fill="#0078bf"/><path d="M56.054 608.28a226.196 226.196 0 0 1-15.008 48.535A152.104 152.104 0 0 0 46.3 666.94c6.473-16.508 11.873-35.696 14.324-57.876l-4.57-.783z" fill="#004289"/><path d="M67.23 610.097c-.122 3.646-.328 7.218-.612 10.716-1.81 22.317-6.73 41.66-12.608 58.232a138.552 138.552 0 0 1-6.395-9.836c6.763-16.907 12.445-36.66 15.007-59.592l4.607.48zM54.052 607.785a224.23 224.23 0 0 1-14.165 46.524 155.84 155.84 0 0 1-4.17-10.172c5.26-11.117 9.998-23.465 13.75-37.19l4.585.838z" fill="#0078bf"/><path d="M73.903 610.892c.405 9.656.18 18.844-.527 27.56-1.596 19.674-5.623 36.953-10.3 51.862a119.095 119.095 0 0 1-7.603-9.253c7.053-19.522 12.83-42.953 13.792-70.595l4.638.427zM47.483 606.374a224.077 224.077 0 0 1-12.754 35.008 150.196 150.196 0 0 1-3.12-10.056 226.175 226.175 0 0 0 11.362-26.28l4.51 1.328zM34.563 602.185a224.207 224.207 0 0 1-6.353 12.902 119.84 119.84 0 0 1-1.015-9.69c.99-1.687 1.97-3.406 2.936-5.154l4.433 1.942z" fill="#004289"/><path d="M40.997 604.472a224.888 224.888 0 0 1-10.177 23.83 138.655 138.655 0 0 1-2.082-9.882 226.884 226.884 0 0 0 7.77-15.566l4.49 1.618z" fill="#0078bf"/><path d="M68.755 609.706c13.43 1.684 26.08 1.694 36.684.335-10.354 2.04-23.125 2.54-36.775 1.064-22.16-2.396-40.946-9.38-50.318-17.73 10.827 7.42 29.158 13.666 50.408 16.332"/></g></svg>